<mxfile host="app.diagrams.net" modified="2023-06-14T02:50:25.980Z" agent="Mozilla/5.0 (Macintosh; Intel Mac OS X 10_15_7) AppleWebKit/537.36 (KHTML, like Gecko) Chrome/114.0.0.0 Safari/537.36" version="21.3.8" etag="RRoBy-JY0_KakiQ_SvGy" type="github">
  <diagram name="第 1 页" id="DabW4ALemrw2Mn9qHvmM">
    <mxGraphModel>
      <root>
        <mxCell id="0" />
        <mxCell id="1" parent="0" />
      </root>
    </mxGraphModel>
  </diagram>
</mxfile>
